<?xml version="1.0" encoding="utf-8"?>
<!-- Generator: Adobe Illustrator 25.3.1, SVG Export Plug-In . SVG Version: 6.00 Build 0)  -->
<svg version="1.1" id="Capa_1" xmlns="http://www.w3.org/2000/svg" xmlns:xlink="http://www.w3.org/1999/xlink" x="0px" y="0px"
	 viewBox="0 0 120.31 170.05" style="enable-background:new 0 0 120.31 170.05;" xml:space="preserve">
<style type="text/css">
	.st0{fill:#00B189;}
</style>
<path class="st0" d="M74.6,170.05H49.91c-2.7,0-4.9-2.19-4.9-4.9v-13.53c-16.68-1.54-32.14-5.98-42.63-12.28
	c-2.14-1.28-2.97-3.95-1.94-6.22l13.31-29.32c0.57-1.25,1.65-2.21,2.95-2.64c1.3-0.42,2.75-0.28,3.94,0.41
	c11.01,6.33,25.57,10.26,38.02,10.26c7.21,0,10.62-1.07,11.08-1.74c-0.96-1.53-11.29-3.62-16.83-4.74
	c-20.3-4.11-50.98-10.33-50.98-42.49c0-11.19,4.24-21.2,12.26-28.97c7.42-7.18,18.05-12.2,30.82-14.58V4.9c0-2.7,2.2-4.9,4.9-4.9
	H74.6c2.7,0,4.9,2.2,4.9,4.9v13.85c12.6,1.61,23.98,5.05,33.01,9.98c2.22,1.22,3.15,3.89,2.15,6.22L102.23,64.1
	c-0.52,1.23-1.54,2.21-2.8,2.67c-1.27,0.47-2.68,0.39-3.87-0.2c-11.23-5.55-21.99-8.36-31.98-8.36c-7.61,0-11.04,1.52-11.04,2.6
	c1.08,1.37,11.41,3.38,16.37,4.34l0,0c20.47,3.97,51.4,9.98,51.4,42.03c0,21.08-15.59,37.48-40.81,43.07v14.89
	C79.5,167.85,77.3,170.05,74.6,170.05z M18.21,104.68c-0.11,0-0.23,0.02-0.34,0.06c-0.31,0.1-0.56,0.32-0.69,0.62L3.87,134.67
	c-0.24,0.53-0.05,1.14,0.45,1.43c10.22,6.14,26.2,10.59,42.73,11.91l1.73,0.13v17c0,0.63,0.51,1.13,1.13,1.13H74.6
	c0.63,0,1.13-0.51,1.13-1.13v-17.96l1.51-0.31c24.24-4.89,39.3-20.11,39.3-39.7c0-28.94-29.1-34.59-48.36-38.33l0,0
	c-13.2-2.56-19.42-4.19-19.42-8.04c0-5.26,8.05-6.37,14.8-6.37c10.58,0,21.89,2.94,33.65,8.75c0.28,0.14,0.61,0.15,0.9,0.05
	c0.28-0.1,0.52-0.33,0.64-0.62l12.44-29.15c0.23-0.54,0.02-1.16-0.5-1.44c-8.99-4.91-20.51-8.28-33.29-9.74l-1.67-0.19V4.9
	c0-0.63-0.51-1.13-1.13-1.13H49.91c-0.63,0-1.13,0.51-1.13,1.13v17.58l-1.57,0.26c-12.71,2.13-23.22,6.92-30.39,13.86
	C9.54,43.64,5.69,52.72,5.69,62.86c0,29.08,28.87,34.93,47.97,38.8c12.28,2.48,19.81,4.23,19.81,8.59c0,3.6-4.84,5.35-14.8,5.35
	c-13.06,0-28.35-4.12-39.89-10.76C18.6,104.74,18.4,104.68,18.21,104.68z"/>
</svg>
